<?xml version="1.0" standalone="no"?>
<!DOCTYPE svg PUBLIC "-//W3C//DTD SVG 20010904//EN"
 "http://www.w3.org/TR/2001/REC-SVG-20010904/DTD/svg10.dtd">
<svg version="1.0" xmlns="http://www.w3.org/2000/svg"
 width="500.000000pt" height="500.000000pt" viewBox="0 0 500.000000 500.000000"
 preserveAspectRatio="xMidYMid meet">

<g transform="translate(0.000000,500.000000) scale(0.100000,-0.100000)"
fill="#000000" stroke="none">
<path d="M2458 3403 c6 -2 18 -2 25 0 6 3 1 5 -13 5 -14 0 -19 -2 -12 -5z"/>
<path d="M2528 3403 c6 -2 18 -2 25 0 6 3 1 5 -13 5 -14 0 -19 -2 -12 -5z"/>
<path d="M2391 3384 c-83 -35 -237 -156 -224 -177 3 -5 1 -7 -5 -3 -14 8 -114
-105 -107 -122 2 -7 0 -10 -5 -7 -12 8 -72 -112 -99 -199 -25 -81 -27 -110 -7
-103 8 3 20 -1 26 -8 7 -8 16 -13 20 -10 4 2 15 -4 25 -15 10 -11 22 -17 26
-14 10 6 -7 44 -19 43 -7 -1 -11 0 -29 6 -5 2 -18 6 -30 10 -13 4 -23 12 -23
17 0 5 4 6 10 3 6 -4 7 1 4 12 -4 13 0 11 15 -7 12 -14 19 -18 15 -8 -4 13 -1
15 15 11 23 -6 26 3 11 27 -9 13 -10 13 -10 0 0 -13 -1 -13 -10 0 -6 9 -10 11
-10 3 0 -7 -6 -10 -14 -7 -30 12 -5 32 35 28 21 -2 39 0 39 4 0 9 -8 11 -54
14 -17 2 -22 7 -18 21 4 14 7 16 13 5 7 -10 9 -10 9 2 0 13 1 13 10 0 9 -13
10 -13 10 0 0 12 2 13 9 1 7 -11 9 -11 14 0 3 9 6 7 6 -6 1 -17 3 -17 11 -5 8
12 10 12 10 -5 0 -17 2 -17 10 -5 5 8 10 25 10 38 0 12 4 22 8 22 14 0 32 -23
32 -42 0 -26 -20 -22 -21 5 0 17 -3 14 -14 -13 -7 -19 -18 -34 -24 -32 -6 1
-18 -16 -27 -38 -9 -23 -21 -37 -27 -33 -5 3 -7 1 -4 -5 4 -5 14 -9 23 -8 9 1
27 -7 39 -18 21 -18 22 -23 9 -37 -11 -12 -11 -18 -1 -28 6 -7 8 -12 2 -11
-24 5 -27 -2 -9 -22 13 -16 14 -19 2 -10 -11 9 -18 10 -23 2 -3 -5 1 -13 9
-16 9 -3 13 -10 10 -15 -3 -5 0 -9 6 -9 6 0 8 -4 5 -10 -4 -6 -11 -5 -19 3 -8
6 -12 15 -9 19 2 4 -2 5 -10 2 -19 -7 -17 -34 2 -34 14 0 14 -2 1 -10 -12 -8
-11 -10 7 -10 12 0 25 -4 28 -10 3 -5 1 -10 -6 -10 -16 0 -77 38 -86 54 -5 8
-19 16 -33 20 -24 7 -25 7 -5 -9 11 -9 19 -21 18 -26 -2 -5 6 -9 17 -9 10 0
23 -6 27 -14 4 -7 19 -19 31 -25 13 -7 21 -15 18 -18 -3 -4 0 -13 7 -21 11
-13 9 -14 -10 -1 -16 10 -19 16 -10 22 7 5 3 6 -10 2 -14 -4 -23 -2 -23 4 0 6
-5 11 -10 11 -6 0 -23 11 -37 25 -15 13 -30 22 -33 18 -3 -3 1 -8 8 -10 9 -4
10 -8 2 -18 -9 -10 -7 -12 7 -9 10 2 27 -3 38 -11 17 -13 18 -17 5 -25 -8 -5
-18 -6 -24 -3 -5 3 -6 1 -2 -5 4 -7 2 -12 -3 -12 -14 0 -14 13 1 28 9 9 8 12
-5 12 -10 0 -17 -7 -16 -17 1 -23 16 -70 19 -60 3 9 7 25 9 33 0 4 8 1 16 -6
9 -7 19 -9 23 -5 4 4 1 10 -6 12 -6 3 -10 9 -6 14 9 15 22 10 29 -11 4 -11 10
-18 15 -15 5 3 11 1 15 -4 3 -6 -4 -8 -16 -6 -15 3 -28 -3 -37 -16 -8 -11 -20
-18 -27 -15 -19 7 -24 -16 -8 -32 11 -12 11 -17 1 -30 -11 -13 -8 -13 19 1 39
21 36 21 61 0 11 -10 32 -27 46 -37 28 -20 35 -42 11 -32 -8 3 -14 2 -14 -2 3
-19 -2 -23 -17 -11 -13 10 -17 10 -25 -2 -7 -11 -9 -11 -9 -1 0 8 9 16 20 19
11 3 20 8 20 12 0 13 -41 41 -52 35 -5 -4 -14 0 -19 7 -15 25 -22 0 -9 -32 13
-31 13 -33 -31 -71 l-44 -40 41 31 c23 17 46 31 52 31 16 0 22 -26 9 -39 -9
-9 -8 -11 4 -6 10 4 20 1 24 -5 5 -7 -22 -42 -67 -89 -41 -42 -81 -85 -89 -96
-8 -11 24 19 70 68 46 48 89 87 96 87 31 0 19 -29 -39 -90 l-61 -65 62 60 c49
46 65 57 75 47 9 -9 6 -18 -13 -39 l-24 -28 26 23 c23 20 27 21 39 7 11 -13 9
-20 -11 -43 l-24 -27 27 24 c24 21 28 22 34 7 3 -9 -1 -28 -10 -44 l-17 -27
20 24 c17 19 24 21 36 11 12 -10 13 -16 3 -29 -11 -14 -11 -14 2 -4 25 19 45
1 30 -28 -10 -22 -10 -23 4 -5 14 18 17 18 40 2 14 -9 27 -16 30 -16 10 0 -2
34 -14 38 -7 3 -10 0 -6 -7 5 -7 1 -8 -10 -4 -11 4 -13 8 -6 11 7 2 10 8 6 13
-3 5 0 9 6 9 6 0 8 5 5 10 -3 6 -1 10 6 10 10 0 10 3 0 13 -10 8 -15 9 -18 1
-2 -6 -11 -20 -19 -30 -9 -10 -13 -13 -9 -7 4 9 1 11 -10 7 -11 -5 -14 -2 -8
12 5 13 3 16 -9 12 -9 -4 -15 0 -15 8 0 8 4 14 9 14 5 0 6 5 3 10 -4 6 -13 9
-20 8 -8 -2 -14 0 -14 5 -3 26 0 29 17 15 9 -8 24 -19 32 -23 13 -8 13 -7 1 8
-8 10 -9 17 -3 17 20 0 25 -23 9 -35 -12 -9 -14 -14 -5 -23 14 -14 32 -16 23
-2 -3 5 -1 18 5 29 8 16 6 22 -7 30 -10 5 -14 13 -10 18 5 4 15 -1 23 -11 7
-11 16 -17 20 -14 3 4 -4 16 -16 28 -16 16 -24 19 -30 10 -6 -9 -14 -8 -34 5
-26 17 -35 35 -17 35 5 0 14 -7 21 -15 11 -13 15 -13 21 -3 6 9 16 5 38 -16
16 -15 34 -25 40 -22 19 12 12 28 -9 21 -27 -9 -25 3 5 31 22 20 24 26 13 44
-7 11 -19 22 -27 25 -11 4 -11 1 1 -17 14 -21 13 -25 -7 -46 -20 -21 -35 -21
-35 1 0 5 7 7 15 3 21 -8 19 0 -7 24 -12 11 -18 20 -13 20 5 0 17 -7 27 -17
10 -9 18 -12 18 -6 0 19 -36 43 -47 32 -7 -7 -14 -4 -24 7 -13 16 -12 17 8 12
15 -4 20 -2 17 7 -6 14 22 28 37 19 17 -10 9 19 -8 32 -13 10 -14 13 -4 14 8
0 20 -8 27 -17 9 -12 13 -14 14 -5 0 7 5 10 11 6 8 -4 7 -9 -2 -15 -11 -6 -11
-11 -1 -21 9 -9 12 -9 12 1 0 7 4 10 9 7 5 -4 12 0 14 6 4 10 6 10 6 0 1 -7
-10 -18 -24 -24 -26 -12 -31 -23 -15 -33 6 -3 10 -2 10 4 0 6 13 17 30 26 26
13 29 13 24 0 -3 -8 -10 -12 -15 -9 -5 3 -9 0 -9 -6 0 -6 -4 -9 -9 -6 -5 3
-12 -1 -15 -10 -9 -24 -8 -26 13 -14 14 7 22 7 27 -2 4 -6 3 -8 -3 -5 -6 4
-14 0 -17 -9 -8 -22 -8 -26 3 -19 5 3 13 0 17 -6 4 -8 3 -9 -4 -5 -7 4 -12 2
-12 -3 0 -6 -9 -20 -20 -31 -11 -11 -15 -22 -10 -25 6 -3 21 6 35 21 14 15 25
24 25 21 0 -12 -74 -117 -83 -117 -4 0 -5 -4 -2 -10 3 -5 1 -10 -6 -10 -10 0
-10 -3 0 -12 11 -11 15 -10 19 1 3 8 15 25 27 37 13 13 21 25 19 27 -3 2 2 10
10 16 12 10 14 9 12 -5 -1 -9 -10 -22 -19 -29 -9 -7 -14 -15 -10 -18 3 -4 -2
-9 -11 -13 -9 -3 -13 -10 -10 -15 3 -5 1 -9 -5 -9 -5 0 -8 -8 -6 -17 1 -10 -1
-25 -6 -35 -7 -13 -5 -15 10 -11 13 3 18 12 16 24 -2 10 1 19 6 19 6 0 8 4 4
9 -3 6 4 15 15 21 11 6 17 16 14 22 -5 7 -2 8 6 3 10 -6 8 -12 -9 -27 -14 -11
-18 -18 -10 -18 9 0 10 -3 4 -8 -17 -12 -15 -54 2 -48 8 3 18 6 21 6 4 0 0 5
-8 10 -11 7 -11 10 -2 10 7 0 11 4 7 9 -3 5 -1 12 3 15 10 6 10 -40 0 -49 -4
-4 -4 -13 -2 -20 6 -14 -49 -58 -60 -48 -3 3 -6 1 -6 -5 0 -16 -107 -85 -120
-77 -5 3 -10 2 -10 -4 0 -18 -41 -35 -50 -21 -5 8 -10 2 -15 -17 -5 -15 -8
-31 -7 -35 1 -5 -4 -8 -10 -8 -9 0 -8 -4 2 -10 8 -5 11 -10 5 -10 -5 0 -17 5
-25 10 -12 8 -12 10 -1 10 9 0 10 4 3 13 -5 6 -12 21 -15 32 -3 13 -5 8 -6
-13 0 -18 -5 -31 -11 -27 -13 8 -61 -5 -54 -16 3 -5 -1 -9 -8 -9 -8 -1 -7 -4
4 -10 9 -6 15 -18 14 -28 -2 -9 4 -22 13 -29 10 -8 11 -12 4 -13 -18 0 -45 43
-32 51 6 3 2 9 -10 12 -12 3 -20 9 -19 14 2 4 -1 8 -7 8 -5 0 -9 -3 -7 -7 3
-10 -25 -10 -32 0 -2 4 -24 6 -48 5 -31 -2 -47 2 -57 15 -12 15 -12 15 -6 -5
9 -32 -20 -20 -41 16 -13 22 -14 23 -9 4 9 -33 -10 -28 -34 10 -11 17 -21 27
-21 20 0 -6 5 -15 10 -18 6 -3 10 -12 10 -18 -1 -7 -14 4 -31 23 -16 19 -27
26 -23 16 11 -29 -14 -10 -37 28 -10 17 -19 25 -19 17 0 -11 -3 -11 -17 0 -10
7 0 -6 21 -29 48 -51 141 -101 267 -143 79 -27 113 -32 214 -36 120 -5 250 11
239 28 -3 5 -10 7 -15 4 -5 -3 -6 2 -2 11 5 13 3 15 -7 9 -9 -5 -11 -4 -6 3 4
7 3 12 -2 12 -4 0 -7 26 -6 58 2 70 1 67 18 53 8 -7 13 -31 12 -66 -1 -30 2
-55 7 -55 4 0 6 -4 3 -9 -3 -5 2 -12 11 -16 10 -3 19 -1 21 4 2 6 8 9 12 6 9
-5 90 33 90 42 0 2 -4 2 -9 -1 -5 -3 -12 16 -16 42 l-7 47 -14 -45 c-17 -57
-17 -58 1 -34 8 10 15 14 15 8 0 -5 -6 -18 -13 -29 -13 -17 -15 -16 -25 15 -7
18 -9 37 -6 42 3 5 6 26 6 46 0 34 1 35 14 17 16 -22 19 -12 4 15 -6 12 -7 21
0 25 8 5 19 -26 33 -90 2 -11 3 8 3 42 0 34 4 67 9 72 7 7 10 -18 9 -72 l-2
-82 7 65 8 65 3 -75 3 -75 8 70 c10 94 13 109 24 115 4 3 9 -5 10 -17 1 -12
-1 -20 -4 -19 -3 2 -6 -18 -7 -45 0 -44 1 -47 13 -29 8 11 11 25 8 30 -3 6 -3
19 0 31 5 16 10 18 21 8 8 -6 14 -16 14 -21 0 -6 -6 -5 -14 2 -13 10 -13 7 -4
-18 6 -16 17 -29 25 -29 7 0 34 20 59 44 25 23 51 40 57 36 6 -3 7 -1 3 6 -4
6 -2 18 4 27 10 12 16 12 29 2 14 -12 14 -11 3 4 -17 22 -6 41 20 35 15 -4 17
-3 8 8 -16 20 -2 37 23 29 21 -6 21 -5 3 8 -16 12 -16 16 -4 29 7 8 22 31 31
52 10 20 22 37 27 37 5 0 7 7 3 16 -3 9 -13 14 -24 11 -11 -3 -19 -1 -19 5 0
5 -4 7 -9 4 -16 -10 -41 6 -41 26 0 17 3 18 15 8 12 -10 15 -10 15 2 0 7 -9
14 -20 15 -14 1 -20 -4 -20 -18 0 -28 -1 -32 -11 -51 -7 -12 -4 -20 7 -26 13
-7 15 -16 9 -38 -5 -16 -7 -33 -6 -38 1 -5 -5 -4 -13 4 -9 7 -16 9 -16 4 0 -5
-7 0 -15 10 -9 12 -15 15 -15 7 0 -8 11 -24 25 -37 14 -13 21 -26 15 -29 -6
-3 -10 -1 -10 5 0 6 -4 8 -10 5 -5 -3 -10 -1 -10 4 0 6 -7 11 -15 11 -9 0 -18
7 -21 15 -4 8 -10 13 -14 10 -5 -3 -13 3 -19 12 -5 10 -13 18 -18 18 -11 -1
-43 27 -43 37 0 10 27 10 32 0 3 -9 63 -52 72 -52 3 0 3 7 0 15 -4 8 -10 12
-15 9 -5 -3 -12 2 -15 10 -3 9 -10 14 -14 11 -12 -7 -23 12 -15 25 4 6 17 3
35 -10 33 -24 41 -25 34 -5 -3 8 -9 14 -12 13 -4 -1 -15 2 -24 6 -19 9 -25 36
-8 36 6 0 10 -5 10 -11 0 -5 4 -8 9 -4 5 3 12 1 16 -5 10 -16 25 -12 19 5 -4
8 -10 13 -14 10 -5 -3 -11 -1 -14 4 -10 15 12 23 33 12 13 -7 18 -18 15 -33
-4 -21 -4 -22 5 -3 12 26 14 48 3 41 -5 -3 -19 4 -31 15 l-22 21 -6 -21 c-3
-12 -9 -21 -14 -21 -11 0 -12 14 -1 24 4 4 7 13 7 19 0 7 8 11 18 9 9 -2 17 2
17 8 0 6 -4 8 -10 5 -5 -3 -10 1 -10 9 0 20 14 21 32 3 7 -8 18 -12 24 -10 7
2 19 -3 28 -12 9 -10 16 -12 16 -5 0 15 -26 41 -34 33 -3 -4 -6 1 -6 9 0 11 6
14 20 11 11 -3 20 -10 20 -15 0 -5 5 -6 12 -2 8 5 9 0 6 -14 -4 -12 -3 -24 2
-27 4 -3 10 8 12 24 4 25 0 31 -21 37 -14 4 -29 7 -33 6 -5 -1 -8 3 -8 9 0 5
-4 7 -10 4 -5 -3 -10 -1 -10 5 0 6 -4 8 -10 5 -5 -3 -10 -2 -10 4 0 14 -33 7
-38 -9 -3 -7 0 -10 6 -6 6 3 17 0 25 -8 8 -8 17 -12 21 -9 3 4 6 1 6 -5 0 -15
-6 -15 -30 -2 -13 7 -19 6 -24 -6 -9 -24 -31 -11 -31 19 -1 14 3 23 7 21 5 -3
11 2 14 10 6 16 20 16 82 -3 24 -7 32 -7 32 3 0 7 -6 13 -12 14 -35 3 -52 10
-56 23 -2 8 0 10 5 4 4 -5 18 -11 31 -11 17 -1 21 3 17 16 -5 15 0 17 29 15
26 -3 34 -1 30 10 -3 8 -12 11 -20 8 -8 -3 -14 -1 -14 4 0 5 9 9 19 10 20 2
31 -22 31 -71 0 -25 -3 -28 -25 -24 -29 6 -31 2 -10 -18 8 -9 15 -11 15 -5 0
7 8 7 24 1 13 -5 27 -6 30 -3 3 4 6 -3 6 -15 0 -19 -3 -20 -25 -12 -20 8 -25
6 -25 -6 0 -8 5 -12 10 -9 6 3 10 -5 10 -18 0 -14 7 -28 17 -31 15 -6 15 -9 3
-16 -8 -5 -18 -6 -22 -4 -4 3 -8 -2 -8 -11 0 -9 5 -13 10 -10 6 3 10 2 10 -4
0 -6 6 -8 14 -5 7 3 13 13 12 21 0 10 10 20 24 24 16 4 19 7 8 8 -20 1 -24 16
-7 27 6 3 9 17 6 30 -3 19 0 24 17 24 12 0 16 3 10 8 -6 4 -14 25 -18 47 -5
29 -4 36 3 25 7 -9 11 -10 11 -3 0 6 10 14 23 16 l22 4 -22 2 c-16 1 -23 7
-23 20 0 15 8 21 38 24 30 3 28 4 -15 5 -50 2 -53 1 -53 -23 0 -22 -4 -24 -32
-22 -24 2 -34 8 -36 22 -3 17 -1 17 7 5 9 -12 11 -9 11 13 0 18 6 28 18 29 9
1 24 2 32 4 8 1 21 2 28 3 10 1 10 4 0 15 -9 10 -15 11 -20 2 -5 -7 -8 -5 -8
6 0 9 5 20 10 23 16 10 81 -15 74 -27 -4 -6 -2 -8 3 -5 13 8 73 -11 73 -23 0
-4 11 -11 24 -14 14 -3 31 -12 38 -19 15 -13 55 -37 63 -37 3 0 5 5 5 11 0 5
-5 7 -12 3 -6 -4 -8 -3 -5 4 4 5 18 9 30 8 14 -2 24 2 24 10 0 7 -5 10 -11 7
-7 -3 -6 -1 1 7 13 14 37 4 27 -12 -5 -7 -2 -8 7 -4 8 4 3 -1 -11 -12 -13 -11
-27 -19 -31 -16 -4 2 -12 -3 -19 -11 -10 -12 -9 -15 7 -15 10 0 24 -5 31 -12
9 -9 11 -6 7 11 -2 12 0 19 6 16 5 -4 6 -12 3 -18 -4 -7 -3 -8 2 -4 5 5 10 13
10 18 1 5 2 14 3 20 0 5 5 8 10 5 15 -10 7 -33 -19 -56 -25 -21 -25 -21 -2
-17 12 3 20 2 17 -3 -6 -10 75 -91 85 -85 14 9 0 34 -15 29 -24 -10 -27 16 -5
46 25 35 47 31 24 -5 -9 -14 -11 -26 -5 -29 5 -4 12 -2 16 4 4 6 10 8 15 5 5
-3 -3 -25 -17 -50 -28 -50 -24 -58 11 -20 22 24 23 24 21 2 -2 -12 -8 -21 -15
-19 -8 2 -10 -3 -6 -13 4 -10 -4 -26 -22 -42 l-27 -25 29 21 c15 11 32 18 37
15 5 -3 6 1 3 9 -3 8 -1 18 4 21 12 7 7 -36 -7 -63 -6 -11 -28 -32 -49 -46
-20 -14 -31 -25 -24 -25 6 0 32 19 56 43 44 42 45 42 42 15 -2 -15 2 -29 8
-31 8 -3 7 -12 -2 -32 -12 -25 -11 -27 2 -15 21 16 21 88 0 187 -19 96 -62
205 -77 196 -6 -3 -7 -1 -3 6 11 18 -94 181 -116 181 -5 0 -16 -9 -25 -20 -10
-11 -23 -20 -31 -20 -7 0 -11 -4 -7 -9 3 -5 -12 -15 -32 -21 -21 -7 -43 -17
-50 -22 -7 -5 -14 -5 -18 2 -6 10 32 29 63 31 11 1 7 4 -8 9 -16 5 -19 8 -8 9
9 1 20 6 23 12 5 7 -4 8 -27 4 -23 -4 -48 0 -80 14 -25 11 -49 18 -52 15 -3
-2 -1 2 4 9 9 9 17 8 41 -6 17 -9 50 -17 74 -17 24 0 47 -4 50 -10 3 -5 16
-10 28 -9 20 1 20 2 -3 9 -18 6 -20 8 -7 9 10 1 16 5 13 10 -9 14 20 21 33 8
6 -6 11 -7 11 -2 0 5 -17 24 -37 43 -36 31 -38 32 -45 12 -5 -13 -16 -20 -35
-20 -21 0 -24 -3 -14 -9 22 -14 -35 -26 -62 -13 -20 9 -18 11 25 23 26 7 45
17 42 21 -3 4 5 13 18 18 20 9 20 10 -7 4 -16 -3 -31 -9 -33 -14 -2 -5 -11 -6
-20 -3 -15 4 -15 3 -2 -7 13 -10 11 -11 -8 -7 -14 3 -20 1 -15 -6 4 -7 0 -8
-11 -4 -11 5 -15 3 -10 -5 5 -7 2 -9 -8 -6 -8 4 -21 2 -28 -2 -20 -12 -33 -1
-19 16 6 8 10 14 8 15 -22 6 -59 4 -59 -3 0 -5 -5 -6 -11 -2 -8 4 -7 9 2 15 7
4 17 5 21 3 4 -3 8 0 8 6 0 6 4 9 9 6 5 -3 14 1 21 10 7 8 18 13 24 11 7 -3
22 4 35 14 25 21 21 25 -10 9 -22 -12 -24 -7 -9 21 7 13 7 19 0 19 -5 0 -10
-6 -10 -12 -1 -19 -29 -53 -37 -45 -3 4 1 15 10 25 11 12 13 22 7 32 -8 13
-10 13 -10 -1 0 -10 -13 -20 -32 -25 -25 -7 -34 -17 -39 -39 -6 -27 -7 -25 -8
13 -1 42 3 46 47 45 6 -1 12 5 12 12 0 14 -11 19 -60 30 -14 3 -48 10 -77 17
l-52 12 -4 50 -3 51 -2 -51 -2 -52 -39 0 c-29 -1 -41 4 -44 16 -4 15 -5 15 -6
0 -1 -12 -10 -16 -38 -15 -21 0 -41 5 -45 11 -5 7 -8 7 -8 -1 0 -7 -9 -13 -20
-13 -11 0 -20 6 -20 13 0 9 -2 9 -9 -1 -4 -7 -27 -15 -50 -17 -23 -1 -45 -5
-48 -9 -4 -3 -15 -6 -27 -6 -15 0 -17 -3 -8 -12 16 -16 15 -25 -2 -31 -8 -3
-17 0 -20 8 -3 10 0 12 12 8 21 -7 15 -2 -19 19 -24 15 -26 15 -25 1 2 -33
-23 -23 -53 21 -17 25 -36 48 -42 52 -6 3 6 -17 26 -45 34 -47 38 -71 13 -71
-6 0 -16 -8 -23 -17 -11 -15 -15 -16 -31 -3 -17 14 -17 14 0 -12 10 -16 14
-28 10 -28 -5 0 0 -7 10 -15 11 -8 14 -15 8 -15 -7 0 -15 0 -19 0 -5 0 -8 4
-8 10 0 5 -7 15 -17 22 -9 7 -19 29 -23 48 -7 33 -7 34 11 20 18 -14 18 -14 3
5 -9 11 -19 35 -21 53 l-5 32 31 -27 30 -28 -27 33 c-28 35 -44 78 -33 89 3 4
18 -4 33 -18 23 -20 22 -18 -5 14 -25 29 -30 42 -23 60 9 25 -12 90 -22 66 -5
-12 -7 -12 -16 1 -6 8 -11 11 -11 7 0 -21 -38 16 -42 42 -3 24 0 32 19 40 32
15 33 14 33 -11 0 -19 -2 -20 -10 -8 -7 11 -10 11 -10 2 0 -7 -4 -10 -10 -7
-5 3 -10 -1 -10 -10 0 -9 4 -14 9 -10 6 3 14 -3 20 -12 8 -14 10 -15 11 -3 0
13 1 13 10 0 5 -8 10 -11 10 -6 0 5 7 3 15 -4 12 -10 15 -10 15 1 0 8 -5 21
-10 29 -9 13 -10 13 -10 0 0 -13 -1 -13 -10 0 -5 8 -10 20 -10 27 0 13 28 11
38 -3 4 -5 14 -10 23 -10 13 -1 14 3 5 22 -6 13 -14 18 -17 12 -4 -6 -15 -2
-28 11 -11 11 -21 17 -21 13 0 -4 -10 -8 -21 -9 -26 -2 -14 12 19 22 17 5 22
2 23 -12 0 -16 1 -16 9 2 5 11 9 15 9 9 1 -11 31 -16 31 -5 -1 18 -19 28 -50
25 -22 -2 -29 0 -20 6 8 5 18 6 22 4 4 -3 8 -1 8 3 0 5 11 9 24 9 13 0 23 -5
22 -10 -2 -6 -1 -8 1 -3 3 4 12 7 21 7 13 0 12 3 -4 14 -16 13 -17 17 -5 28
10 9 12 9 7 1 -4 -7 -5 -13 -2 -13 11 0 35 58 28 66 -4 5 1 2 10 -5 10 -7 23
-11 30 -8 8 4 7 6 -4 6 -10 1 -18 5 -18 9 0 13 45 52 59 52 7 0 9 5 6 10 -3 6
0 10 8 10 8 0 20 7 27 15 7 8 34 15 63 17 50 3 50 3 14 9 -20 3 -50 0 -66 -7z
m-324 -346 c-3 -8 -6 -5 -6 6 -1 11 2 17 5 13 3 -3 4 -12 1 -19z m-17 2 c0 -5
-5 -10 -11 -10 -5 0 -7 5 -4 10 3 6 8 10 11 10 2 0 4 -4 4 -10z m-3 -52 c-3
-7 -5 -2 -5 12 0 14 2 19 5 13 2 -7 2 -19 0 -25z m39 19 c9 3 14 -2 14 -15 0
-15 -6 -20 -20 -19 -15 1 -20 8 -19 27 0 14 3 20 5 13 3 -7 12 -9 20 -6z m-56
-10 c0 -8 -7 -14 -15 -14 -11 0 -12 4 -4 14 6 7 13 13 15 13 2 0 4 -6 4 -13z
m87 -34 c-3 -10 -5 -4 -5 12 0 17 2 24 5 18 2 -7 2 -21 0 -30z m43 -8 c0 -8
-4 -17 -10 -20 -6 -4 -10 5 -10 20 0 15 4 24 10 20 6 -3 10 -12 10 -20z m-119
6 c6 10 9 8 9 -8 0 -18 -5 -22 -30 -20 -16 1 -30 7 -30 14 0 14 33 23 39 10 2
-5 7 -3 12 4z m26 -33 c-3 -7 -5 -2 -5 12 0 14 2 19 5 13 2 -7 2 -19 0 -25z
m83 -39 c0 -11 -4 -17 -10 -14 -5 3 -10 13 -10 21 0 8 5 14 10 14 6 0 10 -9
10 -21z m-59 -42 c-8 -8 -11 -7 -11 4 0 20 13 34 18 19 3 -7 -1 -17 -7 -23z
m29 -2 c0 -8 -4 -15 -10 -15 -5 0 -7 7 -4 15 4 8 8 15 10 15 2 0 4 -7 4 -15z
m-44 -31 c-3 -7 0 -11 7 -8 8 3 13 -5 14 -18 2 -18 0 -20 -7 -8 -5 8 -10 11
-10 7 0 -4 -9 1 -21 12 -12 11 -18 24 -15 30 9 14 38 1 32 -15z m438 -55 c-6
-11 -1 -11 21 -3 13 5 14 8 3 15 -10 7 -9 9 5 9 9 0 17 -4 17 -8 0 -5 10 -8
23 -8 14 1 22 -5 22 -16 0 -10 5 -18 10 -17 6 0 9 7 7 15 -2 8 4 14 13 14 9 0
13 -4 10 -10 -7 -12 37 -9 46 3 3 5 6 -6 7 -22 0 -18 -4 -31 -11 -31 -8 0 -7
-3 2 -9 20 -13 6 -28 -35 -35 -19 -4 -43 -10 -51 -13 -13 -5 -15 -2 -10 11 6
15 3 17 -18 12 -14 -4 -25 -2 -25 3 0 5 12 12 27 16 15 3 22 9 17 13 -14 10
-15 52 -2 52 6 0 9 3 5 6 -3 3 -15 3 -28 -1 -17 -6 -19 -9 -8 -16 12 -8 12
-11 -1 -19 -10 -6 -11 -10 -2 -10 6 0 12 -4 12 -10 0 -5 -7 -10 -15 -10 -9 0
-15 9 -15 25 0 14 -4 25 -8 25 -10 0 -9 -30 2 -48 4 -7 2 -12 -6 -13 -10 0
-10 -2 0 -6 17 -7 15 -23 -3 -23 -14 0 -17 9 -18 58 -1 12 -5 22 -11 22 -5 0
-6 3 -3 6 3 4 2 15 -3 24 -8 15 -6 17 10 13 11 -3 17 -9 14 -14z m176 11 c-8
-5 -19 -10 -25 -10 -5 0 -3 5 5 10 8 5 20 10 25 10 6 0 3 -5 -5 -10z m-216
-33 c0 -15 4 -27 8 -27 4 0 8 -4 8 -10 0 -5 -7 -10 -15 -10 -8 0 -15 5 -15 10
0 6 -11 8 -26 4 -19 -5 -25 -4 -20 5 4 6 3 11 -3 11 -5 0 -13 -4 -16 -10 -3
-5 -1 -10 4 -10 6 0 10 -3 9 -7 -1 -5 5 -28 12 -53 18 -61 20 -70 10 -70 -8 0
-25 48 -22 63 1 4 -3 7 -9 7 -5 0 -7 5 -4 10 3 6 2 10 -3 10 -5 0 -9 6 -9 13
0 6 -4 19 -8 29 -4 11 0 18 14 23 11 3 20 11 18 17 -1 6 4 13 12 16 8 3 11 0
7 -7 -8 -13 -4 -14 19 -5 13 6 14 9 3 16 -9 7 -8 8 7 6 15 -2 20 -11 19 -31z
m266 19 c0 -2 -7 -7 -16 -10 -8 -3 -12 -2 -9 4 6 10 25 14 25 6z m115 -6 c3
-4 19 -6 37 -4 l33 2 -33 -14 c-34 -15 -57 -11 -46 8 4 6 -1 8 -14 4 -11 -4
-23 -3 -26 2 -3 5 6 10 19 10 14 0 27 -4 30 -8z m-65 -8 c0 -4 -10 -9 -22 -9
-18 -2 -20 0 -8 7 18 12 30 13 30 2z m-434 -34 c13 -24 14 -33 4 -36 -9 -3 -9
-6 1 -13 10 -6 10 -9 2 -9 -7 0 -17 10 -24 21 -9 17 -8 24 2 31 11 8 10 9 -3
5 -16 -6 -32 15 -21 27 13 12 23 5 39 -26z m380 -3 c-1 -19 1 -35 6 -35 4 0 8
6 8 14 0 20 17 29 26 15 4 -8 3 -9 -4 -5 -7 4 -12 2 -12 -3 0 -6 5 -11 10 -11
14 0 12 -27 -2 -33 -8 -3 -6 -6 5 -6 9 -1 17 6 17 15 0 14 2 14 16 -1 12 -12
13 -19 5 -29 -8 -9 -8 -16 -2 -20 5 -3 11 -1 13 6 2 6 10 8 17 4 7 -5 10 -14
7 -22 -3 -8 -1 -14 5 -14 9 0 7 -65 -3 -75 -2 -2 -14 -2 -26 2 -23 6 -30 23
-9 23 8 0 7 3 -3 9 -16 11 -33 4 -25 -10 7 -10 -8 -12 -19 -2 -3 4 -21 7 -39
7 -20 1 -31 6 -29 14 1 6 -7 12 -18 12 -35 0 -21 18 19 25 31 5 40 11 44 31 3
15 0 24 -8 24 -8 0 -11 -8 -8 -20 4 -14 0 -20 -12 -20 -11 0 -15 5 -11 15 3 9
0 15 -8 15 -10 0 -12 -7 -8 -22 4 -18 2 -20 -16 -16 -18 5 -22 2 -22 -15 0
-12 -5 -29 -10 -37 -9 -13 -10 -13 -10 0 0 12 -8 15 -35 12 -28 -3 -35 -1 -35
12 0 10 -5 14 -10 11 -6 -4 -8 -11 -5 -16 4 -5 -8 -9 -24 -9 -17 0 -30 3 -30
8 4 22 -3 32 -23 33 -17 1 -19 2 -5 6 9 2 17 11 17 19 0 8 7 14 15 14 8 0 14
-3 14 -7 -4 -25 2 -63 11 -63 5 0 7 7 4 15 -4 11 0 15 16 15 16 0 20 4 16 15
-3 8 0 15 7 15 8 0 7 4 -3 10 -13 9 -13 11 0 20 12 8 16 3 18 -24 3 -29 6 -32
28 -28 14 3 24 11 24 22 0 13 13 21 45 29 34 9 43 15 38 27 -3 9 0 20 8 25 10
6 10 9 2 9 -7 0 -13 5 -13 11 0 5 5 7 10 4 6 -3 10 -1 10 4 0 6 2 11 5 11 2 0
3 -16 1 -35z m87 9 c-5 -13 -28 -13 -40 1 -4 4 -2 5 5 1 6 -4 12 -3 12 2 0 5
6 9 14 9 8 0 12 -6 9 -13z m-528 -4 c-3 -5 -2 -10 4 -10 6 0 17 -13 26 -30 9
-16 13 -30 9 -30 -4 0 -1 -7 6 -15 7 -8 9 -15 4 -15 -5 0 -2 -4 6 -10 8 -5 11
-12 8 -15 -11 -11 -30 6 -24 20 2 7 -2 16 -10 19 -9 3 -13 10 -10 15 3 5 -1
12 -10 15 -14 5 -14 9 -3 23 13 15 12 15 -9 4 -19 -10 -21 -15 -11 -27 6 -8 8
-14 3 -14 -4 0 1 -7 12 -15 10 -8 14 -15 7 -15 -15 0 -54 50 -47 61 3 5 0 9
-6 9 -6 0 -8 5 -4 11 4 8 9 7 15 -2 6 -11 11 -11 21 -1 9 9 9 12 -1 12 -7 0
-9 5 -6 10 3 6 11 10 16 10 6 0 7 -4 4 -10z m572 -22 c-3 -8 -6 -5 -6 6 -1 11
2 17 5 13 3 -3 4 -12 1 -19z m-421 -3 c-3 -8 -2 -15 3 -15 4 0 8 -6 8 -12 0
-7 4 -21 8 -30 5 -13 2 -18 -11 -18 -9 0 -15 3 -12 6 4 3 0 21 -8 39 -11 26
-11 35 -1 38 19 8 19 8 13 -8z m395 -8 c-10 -9 -11 -8 -5 6 3 10 9 15 12 12 3
-3 0 -11 -7 -18z m105 4 c0 -11 -6 -18 -16 -16 -8 1 -19 -3 -23 -9 -5 -7 -7
-3 -5 9 2 11 8 20 15 20 6 0 15 3 19 8 10 10 10 10 10 -12z m-449 -21 c1 -11
-4 -20 -10 -20 -7 0 -13 9 -14 20 -1 11 4 20 10 20 7 0 13 -9 14 -20z m-107
-41 c10 -18 9 -20 -6 -17 -9 1 -18 11 -20 21 -3 24 13 22 26 -4z m153 1 c3
-12 0 -20 -8 -20 -7 0 -15 9 -18 20 -3 12 0 20 8 20 7 0 15 -9 18 -20z m77 0
c0 -5 -7 -10 -15 -10 -8 0 -15 5 -15 10 0 6 7 10 15 10 8 0 15 -4 15 -10z
m570 -16 c0 -2 -9 -4 -21 -4 -11 0 -18 4 -14 10 5 8 35 3 35 -6z m-790 -24 c0
-5 -4 -10 -10 -10 -5 0 -10 5 -10 10 0 6 5 10 10 10 6 0 10 -4 10 -10z m777 3
c-9 -2 -15 -9 -12 -14 4 -5 -11 -8 -32 -8 -21 1 -30 3 -20 6 9 2 17 9 17 14 0
5 15 8 33 8 17 -1 24 -3 14 -6z m-700 -9 c-3 -3 -12 -4 -19 -1 -8 3 -5 6 6 6
11 1 17 -2 13 -5z m-272 -25 c9 -27 0 -35 -22 -18 -16 13 -17 12 -5 -2 19 -25
-11 -33 -33 -9 -19 21 -11 45 11 36 8 -3 14 -1 14 4 0 19 29 10 35 -11z m242
5 c-3 -3 -12 -4 -19 -1 -8 3 -5 6 6 6 11 1 17 -2 13 -5z m61 -21 c-10 -2 -26
-2 -35 0 -10 3 -2 5 17 5 19 0 27 -2 18 -5z m740 -29 c-6 -13 -15 -21 -21 -17
-6 3 -7 2 -4 -4 3 -5 -14 -19 -39 -31 -51 -25 -58 -27 -48 -10 5 8 2 9 -9 5
-10 -3 -17 -3 -17 1 0 4 20 16 45 26 25 11 45 23 45 29 0 5 7 6 16 3 8 -3 12
-2 9 4 -3 6 -1 10 5 10 6 0 8 4 5 10 -3 5 0 7 9 4 12 -5 13 -11 4 -30z m-1109
12 c9 -11 8 -15 -5 -20 -23 -9 -24 -8 -24 14 0 23 13 26 29 6z m941 4 c13 -9
13 -10 0 -9 -8 0 -24 4 -35 9 l-20 9 20 0 c11 0 27 -4 35 -9z m-475 -10 c3 -5
1 -10 -4 -10 -6 0 -11 5 -11 10 0 6 2 10 4 10 3 0 8 -4 11 -10z m-395 -20 c-6
-11 -16 -17 -25 -14 -8 4 -15 2 -15 -4 0 -5 8 -13 17 -16 12 -5 13 -10 5 -18
-8 -8 -18 -5 -38 15 -15 15 -25 29 -23 31 2 2 22 8 44 14 22 5 41 10 43 11 1
1 -2 -8 -8 -19z m1065 0 c-3 -5 0 -10 7 -11 10 0 10 -2 0 -6 -6 -2 -10 -8 -7
-13 3 -5 -4 -11 -15 -15 -11 -4 -18 -10 -15 -15 7 -11 -29 -31 -60 -34 -12 -2
-22 3 -22 10 0 7 3 13 6 12 20 -2 31 3 26 12 -4 6 1 7 11 3 12 -4 15 -3 10 5
-5 8 -1 10 10 5 11 -4 15 -3 10 5 -3 6 2 15 11 21 10 6 14 11 8 11 -5 0 -3 5
5 10 19 12 23 12 15 0z m-1139 -32 c26 -26 30 -38 12 -38 -13 0 -58 42 -58 54
0 13 23 5 46 -16z m92 1 c-2 -6 -8 -10 -13 -10 -5 0 -11 4 -13 10 -2 6 4 11
13 11 9 0 15 -5 13 -11z m-185 -19 c-3 -11 -9 -20 -15 -20 -5 0 -4 9 2 20 6
11 12 20 14 20 2 0 2 -9 -1 -20z m577 10 c8 -5 11 -10 5 -10 -5 0 -17 5 -25
10 -8 5 -10 10 -5 10 6 0 17 -5 25 -10z m280 -5 c0 -8 -9 -15 -21 -15 -11 0
-17 5 -14 10 4 6 11 8 16 5 5 -4 9 -1 9 4 0 6 2 11 5 11 3 0 5 -7 5 -15z m405
-12 c0 -15 -6 -28 -13 -31 -7 -2 -9 -8 -6 -14 4 -5 -4 -4 -17 2 -22 12 -22 13
-4 26 10 8 22 14 27 14 4 0 7 3 7 8 -2 10 0 22 4 22 2 0 3 -12 2 -27z m-1190
-3 c10 -11 14 -20 9 -21 -5 0 1 -4 14 -10 13 -5 21 -13 18 -18 -3 -5 4 -11 17
-15 18 -5 19 -8 7 -16 -11 -7 -25 1 -58 33 -23 23 -37 44 -31 46 8 2 7 6 -2
12 -8 5 -9 9 -3 9 6 0 19 -9 29 -20z m435 16 c0 -3 -4 -8 -10 -11 -5 -3 -10
-1 -10 4 0 6 5 11 10 11 6 0 10 -2 10 -4z m-309 -19 c-1 -4 -3 -6 -4 -4 -2 1
-11 -4 -19 -10 -8 -7 -18 -10 -21 -6 -12 11 -8 21 11 26 22 6 34 4 33 -6z
m-231 -7 c0 -5 -4 -10 -10 -10 -5 0 -10 5 -10 10 0 6 5 10 10 10 6 0 10 -4 10
-10z m80 -22 c0 -17 -28 -7 -33 11 -4 17 -2 18 14 8 10 -6 19 -15 19 -19z
m105 -4 c9 -14 14 -28 11 -31 -8 -8 -55 40 -50 49 9 14 21 8 39 -18z m1141 0
c-1 -14 -8 -29 -15 -33 -7 -5 -12 -12 -11 -17 1 -5 -3 -10 -8 -12 -5 -1 -9 4
-9 13 0 8 4 15 9 15 5 0 7 4 3 9 -3 6 3 14 12 20 10 6 14 11 10 11 -5 0 -5 5
-2 10 10 16 12 12 11 -16z m-1071 6 c-4 -6 -11 -8 -16 -5 -5 4 -9 -1 -9 -10 0
-12 6 -15 19 -10 11 3 22 1 26 -4 4 -7 -1 -8 -11 -4 -12 4 -15 3 -10 -5 11
-18 -15 -14 -36 5 -23 20 -23 30 0 36 31 8 43 7 37 -3z m580 0 c3 -5 2 -10 -4
-10 -5 0 -13 5 -16 10 -3 6 -2 10 4 10 5 0 13 -4 16 -10z m-730 -21 c10 -15
-1 -23 -20 -15 -9 3 -13 10 -10 16 8 13 22 13 30 -1z m812 -31 c-3 -7 -5 -2
-5 12 0 14 2 19 5 13 2 -7 2 -19 0 -25z m-782 1 c10 -15 -1 -23 -20 -15 -9 3
-13 10 -10 16 8 13 22 13 30 -1z m89 2 c3 -5 -5 -16 -18 -24 -18 -12 -26 -13
-35 -4 -9 9 -11 8 -6 -5 5 -13 2 -18 -9 -18 -29 0 -17 30 14 37 17 3 30 9 30
14 0 12 17 12 24 0z m1121 -11 c-5 -25 -43 -80 -55 -80 -5 0 -12 5 -15 10 -3
6 -1 10 4 10 6 0 10 3 9 8 -2 6 52 72 59 72 1 0 0 -9 -2 -20z m-1301 1 c3 -5
-3 -11 -13 -14 -14 -3 -18 -1 -14 9 6 16 19 18 27 5z m696 -11 c0 -5 -2 -10
-4 -10 -3 0 -8 5 -11 10 -3 6 -1 10 4 10 6 0 11 -4 11 -10z m-499 -13 c-1 -12
-15 -9 -19 4 -3 6 1 10 8 8 6 -3 11 -8 11 -12z m659 -2 c0 -11 -9 -15 -30 -13
-17 1 -30 8 -30 15 0 8 12 13 30 13 20 0 30 -5 30 -15z m-683 -21 c-9 -9 -28
6 -21 18 4 6 10 6 17 -1 6 -6 8 -13 4 -17z m-79 -3 c3 -8 -1 -12 -9 -9 -7 2
-15 10 -17 17 -3 8 1 12 9 9 7 -2 15 -10 17 -17z m56 1 c9 -15 -35 -45 -47
-33 -8 8 -5 15 9 26 22 17 31 18 38 7z m-35 -52 c30 -28 51 -53 48 -57 -4 -4
-17 4 -29 17 -20 21 -22 22 -28 5 -5 -13 -9 -15 -14 -7 -4 7 -16 17 -26 22
-16 8 -18 8 -14 -5 4 -8 13 -15 21 -15 10 0 14 -7 10 -20 -3 -11 -1 -22 3 -25
5 -3 10 1 12 9 2 11 10 9 33 -9 16 -13 26 -28 21 -32 -4 -4 -14 1 -22 12 -11
15 -17 17 -23 7 -5 -9 -14 -6 -31 13 -13 14 -20 25 -15 25 4 0 1 8 -9 19 -9
10 -14 25 -10 35 8 21 20 21 32 0 6 -11 14 -14 22 -9 10 6 8 10 -9 17 -12 4
-20 12 -17 16 3 5 -1 9 -9 9 -8 0 -15 -4 -15 -8 0 -4 -7 -9 -15 -12 -12 -5
-12 -2 -3 18 6 14 16 25 22 25 6 -1 35 -23 65 -50z m688 28 c-3 -8 -6 -5 -6 6
-1 11 2 17 5 13 3 -3 4 -12 1 -19z m61 1 c2 -13 -3 -15 -23 -12 -32 7 -34 36
-3 31 13 -2 24 -10 26 -19z m-681 -66 c-9 -8 -57 39 -50 50 2 4 16 -4 30 -18
14 -14 23 -28 20 -32z m660 15 c-3 -7 -5 -2 -5 12 0 14 2 19 5 13 2 -7 2 -19
0 -25z m-237 -29 c0 -5 -4 -9 -10 -9 -5 0 -10 5 -10 11 0 5 -5 7 -12 3 -7 -4
-8 -3 -4 4 7 12 36 5 36 -9z m230 -3 c0 -7 -7 -13 -15 -13 -8 0 -15 8 -15 18
0 12 5 16 15 13 8 -4 15 -12 15 -18z m-240 -24 c0 -13 -12 -22 -22 -16 -10 6
-1 24 13 24 5 0 9 -4 9 -8z m-21 -37 c-9 -38 -12 -45 -21 -45 -6 0 -8 10 -5
22 4 12 1 28 -5 35 -9 11 -6 12 11 5 13 -4 21 -12 20 -17z m-48 -45 c-10 -22
-21 -43 -24 -47 -4 -3 -7 -15 -7 -25 0 -24 -17 -23 -31 3 -8 16 -8 20 1 14 7
-4 13 1 17 14 3 12 9 21 14 21 5 0 9 7 9 15 0 8 5 15 10 15 6 0 10 7 10 15 0
8 4 15 10 15 5 0 1 -18 -9 -40z m199 5 c0 -8 -4 -15 -10 -15 -5 0 -10 7 -10
15 0 8 5 15 10 15 6 0 10 -7 10 -15z m34 -1 c8 -3 12 -12 10 -19 -7 -17 -34
-8 -34 11 0 16 2 16 24 8z m-20 -49 c-4 -8 -8 -15 -10 -15 -2 0 -4 7 -4 15 0
8 4 15 10 15 5 0 7 -7 4 -15z m-198 -6 c3 -6 1 -16 -5 -22 -6 -6 -11 -20 -11
-31 0 -15 3 -17 9 -8 6 11 10 11 19 0 6 -8 8 -19 4 -25 -6 -9 -16 -5 -37 12
-24 19 -28 26 -17 36 6 7 12 21 12 31 0 20 15 24 26 7z m-60 -53 c20 -19 33
-40 29 -45 -10 -17 -25 -13 -26 7 0 10 -3 12 -6 5 -7 -18 -33 -16 -33 3 0 8
-5 12 -10 9 -16 -10 -24 23 -10 40 16 20 16 20 56 -19z m109 12 c45 -30 54
-51 18 -42 -18 5 -24 3 -19 -4 4 -8 2 -10 -7 -6 -9 3 -13 13 -10 25 4 13 1 19
-8 17 -7 -2 -15 5 -17 15 -5 22 1 22 43 -5z m67 -70 c-3 -12 -7 -17 -10 -10
-2 6 -10 12 -18 12 -9 0 -13 -4 -10 -8 7 -11 -11 -38 -20 -30 -11 12 4 38 28
48 34 13 37 12 30 -12z m-75 -34 c-3 -3 -12 -4 -19 -1 -8 3 -5 6 6 6 11 1 17
-2 13 -5z m67 -9 c-4 -8 -10 -12 -15 -9 -11 6 -2 24 11 24 5 0 7 -7 4 -15z
m-106 -6 c-2 -6 3 -14 11 -17 9 -3 11 0 7 7 -6 9 0 10 21 5 28 -7 43 -20 43
-39 0 -5 -4 -3 -9 4 -8 12 -11 9 -16 -12 -9 -35 -50 -32 -50 3 0 13 -7 26 -14
28 -10 3 -11 0 -5 -9 7 -12 5 -12 -9 0 -13 10 -15 17 -6 27 14 17 30 18 27 3z
m-203 -115 c-8 -8 -12 -21 -9 -29 3 -7 1 -23 -5 -34 -9 -16 -9 -19 2 -16 8 4
13 -3 14 -17 2 -18 0 -20 -7 -8 -7 10 -10 11 -10 3 0 -7 -5 -13 -11 -13 -5 0
-7 5 -4 10 3 6 2 10 -3 10 -4 0 -7 21 -5 48 5 69 5 72 15 72 5 0 6 6 2 13 -4
6 2 4 14 -7 18 -16 19 -20 7 -32z m216 23 c-1 -12 -15 -9 -19 4 -3 6 1 10 8 8
6 -3 11 -8 11 -12z m-385 -34 c0 -17 -4 -22 -15 -18 -13 4 -13 3 1 -8 15 -12
15 -14 0 -26 -16 -11 -16 -12 0 -7 12 4 16 0 13 -15 -2 -10 1 -19 7 -19 6 0 8
-3 5 -7 -4 -3 -2 -12 4 -19 6 -7 6 -14 1 -18 -17 -10 -46 48 -47 95 -1 39 1
46 14 41 13 -5 14 -3 4 9 -10 13 -10 16 0 16 7 0 13 -11 13 -24z m60 15 c-1
-7 -5 -18 -8 -23 -4 -6 -3 -17 2 -25 5 -9 5 -19 -2 -27 -7 -9 -7 -13 2 -13 10
0 10 -3 0 -15 -11 -13 -10 -14 3 -9 16 6 18 -19 2 -33 -4 -5 -5 -2 0 6 6 10 4
13 -7 9 -8 -4 -15 0 -16 8 -1 8 -3 21 -4 29 -1 8 -5 15 -9 15 -6 0 -6 18 0 38
1 1 0 4 -1 6 -3 4 32 46 38 46 1 0 1 -6 0 -12z m-116 -18 c-7 -4 -8 -10 -3
-13 6 -4 9 -24 8 -47 -1 -22 2 -40 7 -40 5 0 7 -4 4 -9 -4 -5 0 -11 6 -14 7
-2 10 -7 7 -11 -11 -12 -52 30 -53 55 -1 13 -5 29 -9 36 -4 7 -1 15 7 20 14 8
16 12 16 34 0 5 5 7 11 3 8 -5 8 -9 -1 -14z m-105 -40 c8 -13 -5 -13 -25 0
-13 8 -13 10 2 10 9 0 20 -4 23 -10z m-5 -20 c13 -8 13 -10 1 -10 -11 0 -9 -4
5 -15 10 -8 15 -15 10 -15 -5 0 -3 -6 3 -14 9 -11 9 -16 0 -22 -7 -4 -9 -3 -6
3 4 6 0 14 -9 17 -8 3 -13 10 -10 15 4 5 1 11 -6 13 -12 4 -21 38 -10 38 4 0
14 -5 22 -10z m50 0 c11 -6 17 -18 15 -29 -2 -11 3 -22 11 -25 16 -6 10 -26
-7 -26 -6 0 -8 4 -5 9 3 5 -1 12 -10 15 -8 3 -13 10 -10 15 4 5 1 11 -6 13
-11 4 -21 38 -11 38 2 0 13 -5 23 -10z m-245 -10 c3 -5 2 -10 -4 -10 -5 0 -13
5 -16 10 -3 6 -2 10 4 10 5 0 13 -4 16 -10z m45 -4 c-1 -5 4 -13 12 -17 7 -5
8 -9 2 -9 -6 0 -19 10 -30 21 -18 20 -18 21 -1 18 10 -2 17 -8 17 -13z m50
-10 c-1 -5 4 -13 12 -18 11 -8 11 -9 0 -6 -8 2 -13 8 -12 13 1 5 -7 13 -17 17
-17 7 -17 8 0 5 10 -1 17 -6 17 -11z"/>
<path d="M2650 2720 c-13 -9 -13 -10 0 -10 8 0 22 5 30 10 13 9 13 10 0 10 -8
0 -22 -5 -30 -10z"/>
<path d="M2610 2699 c0 -5 5 -7 10 -4 6 3 10 8 10 11 0 2 -4 4 -10 4 -5 0 -10
-5 -10 -11z"/>
<path d="M2610 2670 c0 -5 7 -7 15 -4 8 4 15 8 15 10 0 2 -7 4 -15 4 -8 0 -15
-4 -15 -10z"/>
<path d="M2435 2730 c-8 -13 5 -13 25 0 13 8 13 10 -2 10 -9 0 -20 -4 -23 -10z"/>
<path d="M2766 2615 c-3 -8 -1 -15 4 -15 6 0 10 7 10 15 0 8 -2 15 -4 15 -2 0
-6 -7 -10 -15z"/>
<path d="M2648 2613 c7 -3 16 -2 19 1 4 3 -2 6 -13 5 -11 0 -14 -3 -6 -6z"/>
<path d="M2598 2583 c-28 -7 -21 -21 7 -15 14 2 25 8 25 13 0 9 -4 10 -32 2z"/>
<path d="M2796 2581 c-4 -5 -2 -12 3 -15 5 -4 12 -2 15 3 4 5 2 12 -3 15 -5 4
-12 2 -15 -3z"/>
<path d="M2743 2573 c-14 -3 -23 -11 -22 -21 0 -11 3 -12 6 -4 2 6 13 12 24
12 10 0 19 5 19 10 0 6 -1 9 -2 9 -2 -1 -13 -4 -25 -6z"/>
<path d="M3161 2469 c-13 -5 -21 -12 -18 -15 3 -3 18 1 34 10 31 17 21 20 -16
5z"/>
<path d="M3215 2420 c-3 -6 1 -7 9 -4 18 7 21 14 7 14 -6 0 -13 -4 -16 -10z"/>
<path d="M3275 2410 c-3 -6 1 -7 9 -4 18 7 21 14 7 14 -6 0 -13 -4 -16 -10z"/>
<path d="M3303 2285 c0 -8 4 -12 9 -9 5 3 6 10 3 15 -9 13 -12 11 -12 -6z"/>
<path d="M2625 1840 c3 -5 1 -10 -5 -10 -6 0 -8 -4 -5 -10 10 -16 22 -12 28
10 3 13 0 20 -10 20 -8 0 -11 -4 -8 -10z"/>
<path d="M2371 1753 c-10 -26 -10 -27 4 -9 8 11 15 23 15 28 0 15 -7 8 -19
-19z"/>
<path d="M2256 1712 c-2 -4 -1 -14 3 -21 6 -9 11 -10 15 -2 4 6 2 11 -4 11 -6
0 -8 5 -5 10 3 6 4 10 1 10 -3 0 -7 -4 -10 -8z"/>
<path d="M2147 1699 c7 -7 15 -10 18 -7 3 3 -2 9 -12 12 -14 6 -15 5 -6 -5z"/>
<path d="M2570 3349 c19 -12 51 -35 70 -52 21 -20 27 -23 15 -8 -24 29 -94 81
-109 81 -6 0 5 -10 24 -21z"/>
<path d="M2640 3366 c0 -2 8 -10 18 -17 15 -13 16 -12 3 4 -13 16 -21 21 -21
13z"/>
<path d="M2448 3353 c7 -3 16 -2 19 1 4 3 -2 6 -13 5 -11 0 -14 -3 -6 -6z"/>
<path d="M2573 3278 c29 -29 61 -64 70 -78 17 -24 17 -24 6 -1 -14 29 -86 109
-111 122 -10 6 5 -14 35 -43z"/>
<path d="M2715 3290 c10 -11 20 -20 23 -20 3 0 -3 9 -13 20 -10 11 -20 20 -23
20 -3 0 3 -9 13 -20z"/>
<path d="M2530 3245 c25 -27 53 -61 63 -75 17 -24 17 -24 0 8 -9 18 -38 51
-62 75 l-45 42 44 -50z"/>
<path d="M2480 3218 c41 -45 50 -53 50 -45 0 2 -21 23 -47 47 l-48 45 45 -47z"/>
<path d="M2430 3188 c24 -27 45 -48 47 -48 8 0 0 9 -44 50 l-48 45 45 -47z"/>
<path d="M2347 3185 c18 -14 51 -47 74 -73 23 -26 32 -33 21 -16 -23 33 -107
114 -119 114 -5 0 6 -12 24 -25z"/>
<path d="M2350 3105 c25 -27 53 -61 63 -75 17 -24 17 -24 0 8 -9 18 -38 51
-62 75 l-45 42 44 -50z"/>
<path d="M2305 3070 c21 -22 41 -40 44 -40 3 0 -13 18 -34 40 -21 22 -41 40
-44 40 -3 0 13 -18 34 -40z"/>
<path d="M2571 3090 c14 -31 19 -36 19 -24 0 6 -7 19 -16 30 -14 18 -14 18 -3
-6z"/>
<path d="M2510 3080 c6 -11 13 -20 16 -20 2 0 0 9 -6 20 -6 11 -13 20 -16 20
-2 0 0 -9 6 -20z"/>
<path d="M2270 3028 c24 -27 45 -48 47 -48 8 0 0 9 -44 50 l-48 45 45 -47z"/>
<path d="M2482 3015 c12 -24 23 -43 26 -41 4 5 -36 86 -43 86 -3 0 5 -20 17
-45z"/>
<path d="M2771 3024 c0 -11 3 -14 6 -6 3 7 2 16 -1 19 -3 4 -6 -2 -5 -13z"/>
<path d="M2235 2980 c27 -27 51 -50 54 -50 3 0 -17 23 -44 50 -27 28 -51 50
-54 50 -3 0 17 -22 44 -50z"/>
<path d="M2375 2983 c15 -24 30 -43 32 -43 7 0 -31 61 -46 73 -8 7 -2 -7 14
-30z"/>
<path d="M2831 3004 c0 -11 3 -14 6 -6 3 7 2 16 -1 19 -3 4 -6 -2 -5 -13z"/>
<path d="M2782 2970 c0 -14 2 -19 5 -12 2 6 2 18 0 25 -3 6 -5 1 -5 -13z"/>
<path d="M2731 2944 c0 -11 3 -14 6 -6 3 7 2 16 -1 19 -3 4 -6 -2 -5 -13z"/>
<path d="M2631 2914 c0 -11 3 -14 6 -6 3 7 2 16 -1 19 -3 4 -6 -2 -5 -13z"/>
<path d="M2843 2860 c0 -41 2 -58 4 -37 2 20 2 54 0 75 -2 20 -4 3 -4 -38z"/>
<path d="M2305 2896 c10 -14 19 -26 22 -26 7 0 -17 39 -28 46 -6 3 -3 -5 6
-20z"/>
<path d="M2245 2890 c10 -11 20 -20 23 -20 3 0 -3 9 -13 20 -10 11 -20 20 -23
20 -3 0 3 -9 13 -20z"/>
<path d="M2382 2865 c12 -24 23 -43 26 -41 4 5 -36 86 -43 86 -3 0 5 -20 17
-45z"/>
<path d="M2641 2864 c0 -11 3 -14 6 -6 3 7 2 16 -1 19 -3 4 -6 -2 -5 -13z"/>
<path d="M2691 2864 c0 -11 3 -14 6 -6 3 7 2 16 -1 19 -3 4 -6 -2 -5 -13z"/>
<path d="M2340 2840 c6 -11 13 -20 16 -20 2 0 0 9 -6 20 -6 11 -13 20 -16 20
-2 0 0 -9 6 -20z"/>
<path d="M1950 2764 c0 -6 5 -15 12 -22 9 -9 9 -12 0 -12 -7 0 -16 8 -19 17
-6 15 -7 14 -13 -3 -4 -10 -3 -27 2 -36 6 -12 5 -18 -3 -18 -8 0 -8 -4 1 -15
7 -9 15 -13 17 -11 3 2 13 -4 24 -15 22 -22 45 -25 55 -6 4 6 4 9 0 6 -4 -4
-19 4 -33 17 -16 14 -33 22 -42 19 -8 -3 -12 -3 -9 1 4 4 3 15 -3 25 -12 23 3
25 21 4 7 -8 17 -12 23 -8 5 3 7 1 3 -5 -3 -6 -1 -14 5 -18 8 -5 9 -3 4 6 -5
8 -3 11 6 8 8 -3 14 -10 14 -16 0 -7 3 -12 8 -12 4 0 12 0 18 0 6 0 -4 12 -22
28 -18 15 -37 26 -42 24 -5 -1 -6 1 -4 5 3 5 -1 17 -9 28 -8 10 -14 14 -14 9z"/>
<path d="M2049 2754 c17 -35 -7 -49 -38 -21 -21 18 -21 16 3 -10 16 -18 33
-30 38 -27 5 3 7 9 4 12 -3 3 2 15 11 26 10 12 14 18 9 14 -5 -4 -15 0 -23 10
-13 15 -13 15 -4 -4z"/>
<path d="M2220 2756 c0 -2 8 -10 18 -17 15 -13 16 -12 3 4 -13 16 -21 21 -21
13z"/>
<path d="M3070 2679 c0 -5 5 -7 10 -4 6 3 10 8 10 11 0 2 -4 4 -10 4 -5 0 -10
-5 -10 -11z"/>
<path d="M3042 2662 c-7 -9 -10 -11 -6 -4 5 11 2 12 -14 3 -12 -6 -24 -16 -27
-21 -3 -6 -11 -10 -17 -10 -6 0 -5 7 3 18 13 16 12 16 -4 3 -17 -13 -17 -16
-4 -26 14 -10 14 -12 -1 -23 -13 -9 89 42 106 53 1 1 -3 7 -11 13 -9 8 -16 7
-25 -6z"/>
<path d="M1976 2471 c-4 -7 -5 -15 -2 -18 9 -9 19 4 14 18 -4 11 -6 11 -12 0z"/>
<path d="M1874 2384 c-18 -14 -18 -15 4 -4 12 6 22 13 22 15 0 8 -5 6 -26 -11z"/>
<path d="M2015 2380 c3 -5 8 -10 11 -10 2 0 4 5 4 10 0 6 -5 10 -11 10 -5 0
-7 -4 -4 -10z"/>
<path d="M2870 2380 c0 -5 7 -10 15 -10 8 0 15 5 15 10 0 6 -7 10 -15 10 -8 0
-15 -4 -15 -10z"/>
<path d="M1774 2314 l-39 -35 43 32 c38 30 48 39 39 39 -2 0 -21 -16 -43 -36z"/>
<path d="M3048 2343 c7 -3 16 -2 19 1 4 3 -2 6 -13 5 -11 0 -14 -3 -6 -6z"/>
<path d="M1819 2279 l-44 -41 48 38 c26 21 47 40 47 41 0 8 -11 0 -51 -38z"/>
<path d="M1901 2280 c-28 -22 -51 -43 -51 -46 0 -3 21 12 48 32 64 52 67 54
60 54 -3 0 -29 -18 -57 -40z"/>
<path d="M2780 2308 c0 -4 7 -8 15 -8 8 0 15 4 15 8 0 5 -7 9 -15 9 -8 0 -15
-4 -15 -9z"/>
<path d="M2821 2304 c0 -11 3 -14 6 -6 3 7 2 16 -1 19 -3 4 -6 -2 -5 -13z"/>
<path d="M3043 2293 c9 -2 25 -2 35 0 9 3 1 5 -18 5 -19 0 -27 -2 -17 -5z"/>
<path d="M2250 2271 c0 -8 6 -11 16 -7 9 3 20 6 25 6 5 0 9 4 9 9 0 5 -11 8
-25 7 -14 0 -25 -7 -25 -15z"/>
<path d="M1704 2258 l-19 -23 23 19 c12 11 22 21 22 23 0 8 -8 2 -26 -19z"/>
<path d="M3148 2253 c7 -3 16 -2 19 1 4 3 -2 6 -13 5 -11 0 -14 -3 -6 -6z"/>
<path d="M3335 2251 c-3 -5 -2 -12 3 -15 5 -3 9 1 9 9 0 17 -3 19 -12 6z"/>
<path d="M2657 2243 c-4 -3 -7 -11 -7 -17 0 -6 5 -5 12 2 6 6 9 14 7 17 -3 3
-9 2 -12 -2z"/>
<path d="M3058 2243 c12 -2 30 -2 40 0 9 3 -1 5 -23 4 -22 0 -30 -2 -17 -4z"/>
<path d="M1979 2213 l-24 -28 28 24 c25 23 32 31 24 31 -2 0 -14 -12 -28 -27z"/>
<path d="M1659 2203 l-24 -28 28 24 c25 23 32 31 24 31 -2 0 -14 -12 -28 -27z"/>
<path d="M1804 2198 l-29 -33 33 29 c17 17 32 31 32 33 0 8 -8 1 -36 -29z"/>
<path d="M1860 2173 l-55 -58 58 55 c53 50 62 60 54 60 -1 0 -27 -26 -57 -57z"/>
<path d="M2320 2191 c0 -7 -5 -9 -11 -5 -8 4 -8 0 0 -15 7 -11 14 -21 17 -21
3 0 3 4 0 9 -4 5 0 11 6 14 10 4 11 7 1 18 -10 10 -13 10 -13 0z"/>
<path d="M2978 2193 c6 -2 18 -2 25 0 6 3 1 5 -13 5 -14 0 -19 -2 -12 -5z"/>
<path d="M3103 2193 c9 -2 25 -2 35 0 9 3 1 5 -18 5 -19 0 -27 -2 -17 -5z"/>
<path d="M3300 2190 c-9 -6 -10 -10 -3 -10 6 0 15 5 18 10 8 12 4 12 -15 0z"/>
<path d="M1699 2163 c-13 -16 -12 -17 4 -4 9 7 17 15 17 17 0 8 -8 3 -21 -13z"/>
<path d="M2710 2168 c0 -6 3 -8 7 -5 3 4 12 2 20 -4 10 -9 13 -8 13 3 0 7 -9
14 -20 15 -11 1 -20 -3 -20 -9z"/>
<path d="M2818 2155 c-3 -14 -2 -28 2 -30 4 -3 10 9 12 25 5 36 -8 40 -14 5z"/>
<path d="M1737 2118 c-27 -37 -45 -69 -30 -53 18 19 64 85 59 85 -3 0 -16 -15
-29 -32z"/>
<path d="M2968 2143 c6 -2 18 -2 25 0 6 3 1 5 -13 5 -14 0 -19 -2 -12 -5z"/>
<path d="M3148 2143 c6 -2 18 -2 25 0 6 3 1 5 -13 5 -14 0 -19 -2 -12 -5z"/>
<path d="M1595 2109 c-9 -17 -15 -33 -13 -35 3 -2 12 12 21 31 21 43 13 47 -8
4z"/>
<path d="M1673 2128 c-15 -20 -25 -38 -20 -38 3 0 12 11 21 25 17 26 16 35 -1
13z"/>
<path d="M1869 2103 l-24 -28 28 24 c25 23 32 31 24 31 -2 0 -14 -12 -28 -27z"/>
<path d="M2293 2115 c-6 -7 -9 -16 -5 -21 4 -4 -1 -4 -11 -1 -24 9 -12 -9 15
-24 16 -9 19 -8 13 1 -5 8 0 19 11 29 11 9 17 15 15 14 -2 -2 -9 1 -15 6 -7 6
-16 4 -23 -4z"/>
<path d="M1789 2093 c-13 -16 -12 -17 4 -4 9 7 17 15 17 17 0 8 -8 3 -21 -13z"/>
<path d="M2918 2103 c7 -3 16 -2 19 1 4 3 -2 6 -13 5 -11 0 -14 -3 -6 -6z"/>
<path d="M2968 2093 c6 -2 18 -2 25 0 6 3 1 5 -13 5 -14 0 -19 -2 -12 -5z"/>
<path d="M2039 2063 l-24 -28 28 24 c25 23 32 31 24 31 -2 0 -14 -12 -28 -27z"/>
<path d="M3058 2083 c6 -2 18 -2 25 0 6 3 1 5 -13 5 -14 0 -19 -2 -12 -5z"/>
<path d="M3123 2083 c9 -2 23 -2 30 0 6 3 -1 5 -18 5 -16 0 -22 -2 -12 -5z"/>
<path d="M1833 2058 c-15 -20 -25 -38 -20 -38 3 0 12 11 21 25 17 26 16 35 -1
13z"/>
<path d="M2711 2044 c0 -11 3 -14 6 -6 3 7 2 16 -1 19 -3 4 -6 -2 -5 -13z"/>
<path d="M2736 2042 c-3 -6 -1 -14 5 -17 14 -9 20 -2 10 14 -6 8 -11 9 -15 3z"/>
<path d="M3028 2033 c6 -2 18 -2 25 0 6 3 1 5 -13 5 -14 0 -19 -2 -12 -5z"/>
<path d="M3178 2033 c6 -2 18 -2 25 0 6 3 1 5 -13 5 -14 0 -19 -2 -12 -5z"/>
<path d="M3384 1998 l-29 -33 33 29 c17 17 32 31 32 33 0 8 -8 1 -36 -29z"/>
<path d="M1845 1969 c-9 -17 -15 -33 -13 -35 3 -2 12 12 21 31 21 43 13 47 -8
4z"/>
<path d="M2160 1980 c-6 -11 -8 -20 -6 -20 3 0 10 9 16 20 6 11 8 20 6 20 -3
0 -10 -9 -16 -20z"/>
<path d="M3008 1983 c7 -3 16 -2 19 1 4 3 -2 6 -13 5 -11 0 -14 -3 -6 -6z"/>
<path d="M1553 1940 c0 -25 2 -35 4 -22 2 12 2 32 0 45 -2 12 -4 2 -4 -23z"/>
<path d="M1602 1960 c0 -14 2 -19 5 -12 2 6 2 18 0 25 -3 6 -5 1 -5 -13z"/>
<path d="M2030 1960 c-6 -11 -8 -20 -6 -20 3 0 10 9 16 20 6 11 8 20 6 20 -3
0 -10 -9 -16 -20z"/>
<path d="M3123 1973 c15 -2 39 -2 55 0 15 2 2 4 -28 4 -30 0 -43 -2 -27 -4z"/>
<path d="M3437 1961 c-3 -14 -1 -18 9 -14 16 6 18 19 5 27 -5 3 -11 -3 -14
-13z"/>
<path d="M3330 1960 c-9 -6 -10 -10 -3 -10 6 0 15 5 18 10 8 12 4 12 -15 0z"/>
<path d="M3375 1933 c-22 -19 -31 -31 -20 -25 19 9 74 63 64 62 -2 -1 -22 -17
-44 -37z"/>
<path d="M1651 1934 c0 -11 3 -14 6 -6 3 7 2 16 -1 19 -3 4 -6 -2 -5 -13z"/>
<path d="M1886 1925 c-9 -26 -7 -32 5 -12 6 10 9 21 6 23 -2 3 -7 -2 -11 -11z"/>
<path d="M1701 1914 c0 -11 3 -14 6 -6 3 7 2 16 -1 19 -3 4 -6 -2 -5 -13z"/>
<path d="M2286 1915 c-9 -26 -7 -32 5 -12 6 10 9 21 6 23 -2 3 -7 -2 -11 -11z"/>
<path d="M3038 1923 c7 -3 16 -2 19 1 4 3 -2 6 -13 5 -11 0 -14 -3 -6 -6z"/>
<path d="M3228 1923 c7 -3 16 -2 19 1 4 3 -2 6 -13 5 -11 0 -14 -3 -6 -6z"/>
<path d="M3437 1910 c-3 -11 -1 -23 4 -26 5 -3 9 6 9 20 0 31 -6 34 -13 6z"/>
<path d="M3123 1913 c9 -2 25 -2 35 0 9 3 1 5 -18 5 -19 0 -27 -2 -17 -5z"/>
<path d="M2166 1885 c-9 -26 -7 -32 5 -12 6 10 9 21 6 23 -2 3 -7 -2 -11 -11z"/>
<path d="M3375 1874 c-18 -16 -22 -22 -9 -15 18 9 53 42 43 41 -2 -1 -17 -12
-34 -26z"/>
<path d="M1602 1860 c0 -14 2 -19 5 -12 2 6 2 18 0 25 -3 6 -5 1 -5 -13z"/>
<path d="M3008 1873 c7 -3 16 -2 19 1 4 3 -2 6 -13 5 -11 0 -14 -3 -6 -6z"/>
<path d="M3397 1845 c-15 -19 -44 -44 -65 -55 -20 -10 -33 -19 -29 -20 24 -1
99 57 118 93 15 26 7 21 -24 -18z"/>
<path d="M3058 1863 c6 -2 18 -2 25 0 6 3 1 5 -13 5 -14 0 -19 -2 -12 -5z"/>
<path d="M3218 1863 c7 -3 16 -2 19 1 4 3 -2 6 -13 5 -11 0 -14 -3 -6 -6z"/>
<path d="M1801 1844 c0 -11 3 -14 6 -6 3 7 2 16 -1 19 -3 4 -6 -2 -5 -13z"/>
<path d="M3320 1840 c-9 -6 -10 -10 -3 -10 6 0 15 5 18 10 8 12 4 12 -15 0z"/>
<path d="M3420 1833 c0 -5 -17 -29 -37 -54 -21 -24 -27 -35 -14 -24 32 27 65
75 57 82 -3 4 -6 2 -6 -4z"/>
<path d="M1911 1814 c0 -11 3 -14 6 -6 3 7 2 16 -1 19 -3 4 -6 -2 -5 -13z"/>
<path d="M1853 1770 c0 -30 2 -43 4 -27 2 15 2 39 0 55 -2 15 -4 2 -4 -28z"/>
<path d="M2760 1806 c0 -3 9 -10 20 -16 11 -6 20 -8 20 -6 0 3 -9 10 -20 16
-11 6 -20 8 -20 6z"/>
<path d="M3083 1803 c9 -2 23 -2 30 0 6 3 -1 5 -18 5 -16 0 -22 -2 -12 -5z"/>
<path d="M3193 1803 c9 -2 23 -2 30 0 6 3 -1 5 -18 5 -16 0 -22 -2 -12 -5z"/>
<path d="M2021 1784 c0 -11 3 -14 6 -6 3 7 2 16 -1 19 -3 4 -6 -2 -5 -13z"/>
<path d="M2521 1784 c0 -11 3 -14 6 -6 3 7 2 16 -1 19 -3 4 -6 -2 -5 -13z"/>
<path d="M1962 1770 c0 -14 2 -19 5 -12 2 6 2 18 0 25 -3 6 -5 1 -5 -13z"/>
<path d="M2314 1756 c1 -8 5 -18 8 -22 4 -3 5 1 4 10 -1 8 -5 18 -8 22 -4 3
-5 -1 -4 -10z"/>
<path d="M1801 1744 c0 -11 3 -14 6 -6 3 7 2 16 -1 19 -3 4 -6 -2 -5 -13z"/>
<path d="M3028 1753 c7 -3 16 -2 19 1 4 3 -2 6 -13 5 -11 0 -14 -3 -6 -6z"/>
<path d="M2313 1700 c-1 -11 2 -22 6 -24 4 -3 7 4 6 14 -2 27 -10 33 -12 10z"/>
<path d="M3038 1693 c7 -3 16 -2 19 1 4 3 -2 6 -13 5 -11 0 -14 -3 -6 -6z"/>
<path d="M3118 1683 c12 -2 32 -2 45 0 12 2 2 4 -23 4 -25 0 -35 -2 -22 -4z"/>
</g>
</svg>
